HIERARCHY
ROOT hip
{
	OFFSET 0.000000 0.000000 0.000000 
	CHANNELS 6 Xposition Yposition Zposition Xrotation Zrotation Yrotation
	JOINT abdomen
	{
		OFFSET 0.000000 3.402643 0.000000 
		CHANNELS 3 Xrotation Zrotation Yrotation
		JOINT chest
		{
			OFFSET 0.000000 8.438565 -0.680529 
			CHANNELS 3 Xrotation Zrotation Yrotation
			JOINT neck
			{
				OFFSET 0.000000 10.207942 -0.272212 
				CHANNELS 3 Xrotation Zrotation Yrotation
				JOINT head
				{
					OFFSET 0.000000 3.130431 0.000000 
					CHANNELS 3 Xrotation Zrotation Yrotation
					End Site
					{
						OFFSET 0.000000 3.130435 0.000000 
					}
				}
			}
			JOINT lCollar
			{
				OFFSET 3.470700 6.669187 -0.816635 
				CHANNELS 3 Yrotation Zrotation Xrotation
				JOINT lShldr
				{
					OFFSET 3.198488 0.000000 0.000000 
					CHANNELS 3 Zrotation Yrotation Xrotation
					JOINT lForeArm
					{
						OFFSET 10.139888 0.000000 0.000000 
						CHANNELS 3 Yrotation Zrotation Xrotation
						JOINT lHand
						{
							OFFSET 8.370511 0.000000 0.000000 
							CHANNELS 3 Zrotation Yrotation Xrotation
							End Site
							{
								OFFSET 4.083176 0.000000 0.000000 
							}
						}
					}
				}
			}
			JOINT rCollar
			{
				OFFSET -3.470700 6.669187 -0.816635 
				CHANNELS 3 Yrotation Zrotation Xrotation
				JOINT rShldr
				{
					OFFSET -3.198488 0.000000 0.000000 
					CHANNELS 3 Zrotation Yrotation Xrotation
					JOINT rForeArm
					{
						OFFSET -10.139888 0.000000 0.000000 
						CHANNELS 3 Yrotation Zrotation Xrotation
						JOINT rHand
						{
							OFFSET -8.370511 0.000000 0.000000 
							CHANNELS 3 Zrotation Yrotation Xrotation
							End Site
							{
								OFFSET -4.083176 0.000000 0.000000 
							}
						}
					}
				}
			}
		}
	}
	JOINT lThigh
	{
		OFFSET 5.308129 -1.633274 1.361059 
		CHANNELS 3 Xrotation Zrotation Yrotation
		JOINT lShin
		{
			OFFSET -2.041588 -20.007561 0.000000 
			CHANNELS 3 Xrotation Zrotation Yrotation
			JOINT lFoot
			{
				OFFSET 0.000000 -19.190928 -1.224953 
				CHANNELS 3 Xrotation Yrotation Zrotation
				End Site
				{
					OFFSET 0.000000 -2.449906 4.627600 
				}
			}
		}
	}
	JOINT rThigh
	{
		OFFSET -5.308129 -1.633274 1.361059 
		CHANNELS 3 Xrotation Zrotation Yrotation
		JOINT rShin
		{
			OFFSET 2.041588 -20.007561 0.000000 
			CHANNELS 3 Xrotation Zrotation Yrotation
			JOINT rFoot
			{
				OFFSET 0.000000 -19.190928 -1.224953 
				CHANNELS 3 Xrotation Yrotation Zrotation
				End Site
				{
					OFFSET 0.000000 -2.449906 4.627600 
				}
			}
		}
	}
}
MOTION
Frames: 18
Frame Time: 0.016667
3.718159 45.546688 3.279556 7.872310 -1.006060 -0.285733 -19.055300 0.943016 -4.829300 18.624100 5.426620 -2.291380 17.357500 16.707701 -10.345600 16.776800 9.894490 -4.175300 2.000000 -2.000000 0.000000 -93.177902 -32.028900 -138.688004 61.260300 -0.280587 0.119928 0.044773 -0.006699 -139.313995 -2.000000 2.000000 0.000000 45.943600 20.508900 -168.054001 -83.135300 0.231190 0.135744 -0.095425 -0.097395 -95.017601 -12.408591 2.431175 -0.148650 21.756231 2.895837 1.694603 -9.304711 14.001674 2.977298 -18.383972 -1.599013 2.230865 27.986639 -2.642368 -2.184242 -13.406825 -5.612138 -3.105090 
3.671135 45.515251 3.217860 8.183740 -0.338316 -1.913950 -19.022200 1.153450 -5.437280 18.759899 5.934600 -2.557880 18.542400 16.244499 -9.714220 17.137199 9.736830 -3.970200 2.000000 -2.000000 0.000000 -94.252701 -35.072399 -136.778000 59.932201 -0.283348 0.118372 0.044659 -0.002872 -137.947006 -2.000000 2.000000 0.000000 47.154900 21.317499 -167.231995 -82.305199 0.233155 0.135493 -0.096324 -0.098389 -94.539101 -12.292800 1.972012 0.578411 21.344894 2.871637 1.676593 -9.294843 14.823732 3.221355 -19.190369 -1.869700 3.291070 28.203932 -2.628030 -2.187346 -13.196109 -5.049239 -2.887925 
3.624098 45.483784 3.156175 8.466950 0.338072 -3.533600 -18.987700 1.354950 -6.041850 18.885900 6.442600 -2.824150 19.710199 15.760800 -9.099480 17.507200 9.578800 -3.765360 2.000000 -2.000000 0.000000 -95.503197 -38.076801 -134.731995 58.594299 -0.286092 0.116741 0.044636 0.000957 -136.580002 -2.000000 2.000000 0.000000 48.385601 22.106501 -166.380005 -81.465401 0.235139 0.135210 -0.097250 -0.099395 -94.050797 -12.124332 1.522452 1.300532 20.790159 2.813413 1.654965 -9.207713 15.650318 3.466822 -19.906967 -2.151514 4.351205 28.343687 -2.602576 -2.188795 -13.007609 -4.484177 -2.639577 
3.604169 45.465618 3.107510 9.034790 1.070540 -5.054240 -19.145599 1.514670 -6.675810 18.953400 6.843050 -3.091270 21.048300 15.650300 -8.465950 17.965300 9.625980 -3.575170 2.000000 -2.000000 0.000000 -96.588303 -40.769299 -133.057999 57.041500 -0.289228 0.114768 0.044661 0.003035 -135.837997 -2.000000 2.000000 0.000000 49.070202 23.121799 -166.212006 -80.361900 0.237739 0.134794 -0.097064 -0.099194 -94.148399 -12.256529 1.010795 2.003223 20.207087 2.742886 1.622954 -8.993761 16.414330 3.714596 -20.944469 -2.510708 5.241622 28.347088 -2.575802 -2.211448 -12.626288 -3.814603 -2.386687 
3.584240 45.447441 3.058846 9.584910 1.810320 -6.569190 -19.301600 1.664680 -7.308500 19.020901 7.243520 -3.367190 22.393499 15.518300 -7.834420 18.423901 9.681770 -3.391470 2.000000 -2.000000 0.000000 -97.839104 -43.432400 -131.238007 55.479000 -0.292328 0.112697 0.044714 -0.004653 -135.095993 -2.000000 2.000000 0.000000 49.754799 24.127199 -166.024002 -79.258301 0.240331 0.134328 -0.096897 -0.099014 -94.236298 -12.350609 0.510955 2.703634 19.481361 2.639473 1.607756 -8.713812 17.190567 3.956474 -21.962940 -2.848050 6.126956 28.369532 -2.550676 -2.225021 -12.248662 -3.131176 -2.132722 
3.558156 45.429131 3.031738 9.813140 2.367230 -8.369920 -19.212200 1.953300 -7.764270 19.157400 7.673520 -3.545880 23.553400 14.914700 -7.381940 18.870300 9.472360 -3.238380 2.000000 -2.000000 0.000000 81.211304 -133.845001 50.172501 53.799301 -0.295596 0.110378 0.044832 -0.001757 -134.059998 -2.000000 2.000000 0.000000 49.746899 25.612101 -166.231003 -78.320801 0.242525 0.133893 -0.096361 -0.098429 -94.519501 -12.259625 0.219752 3.625860 19.151793 2.598547 1.607087 -8.799968 17.950191 4.207431 -22.773319 -2.902269 7.055189 28.480612 -2.524624 -2.245982 -11.656667 -2.402915 -1.855013 
3.532072 45.410698 3.004631 10.022900 2.923520 -10.166800 -19.122299 2.248280 -8.231120 19.294100 8.093760 -3.722320 24.706499 14.294000 -6.948850 19.306900 9.273020 -3.097200 2.000000 -2.000000 0.000000 80.105400 -131.132996 51.736301 52.119598 -0.298795 0.107965 0.045003 0.001137 -133.024994 -2.000000 2.000000 0.000000 49.729401 27.096901 -166.442001 -77.393097 0.244689 0.133427 -0.095828 -0.097842 -94.802696 -12.193902 -0.065061 4.558592 18.861328 2.559984 1.605881 -8.896467 18.721254 4.496775 -23.573557 -2.939180 7.953111 28.628834 -2.513879 -2.250499 -11.052423 -1.650769 -1.552851 
3.503829 45.403347 3.005148 10.146200 3.508850 -11.638100 -18.956699 2.459070 -8.784010 19.549500 8.504570 -3.957360 25.114700 13.794400 -6.514490 19.372601 9.194530 -2.932380 2.000000 -2.000000 0.000000 79.467903 -128.585999 53.165699 50.537601 -0.301743 0.105606 0.045267 0.004490 -131.824005 -2.000000 2.000000 0.000000 49.546200 28.601801 -166.848999 -76.650902 0.246415 0.133030 -0.095024 -0.096947 -95.232399 -12.011389 -0.427688 5.436502 18.315218 2.508865 1.578172 -8.851563 19.296478 4.703329 -24.247818 -3.082104 8.553074 28.836658 -2.497291 -2.262337 -10.657379 -0.942731 -1.338809 
3.475576 45.395874 3.005664 10.251200 4.103590 -13.096200 -18.799299 2.667060 -9.344850 19.795500 8.905480 -4.178910 25.521799 13.289100 -6.081840 19.438700 9.125480 -2.763620 2.000000 -2.000000 0.000000 78.693604 -126.039001 54.721901 48.945801 -0.304641 0.103152 0.045598 0.007810 -130.632996 -2.000000 2.000000 0.000000 49.343700 30.116501 -167.274994 -75.908699 0.248135 0.132609 -0.094245 -0.096066 -95.652397 -11.773044 -0.789510 6.318634 17.740438 2.454008 1.560678 -8.824533 19.856670 4.914088 -24.904030 -3.221264 9.164927 29.036407 -2.473143 -2.301921 -10.254296 -0.215627 -1.077807 
3.425889 45.373959 3.014583 10.456400 4.763680 -14.336600 -18.957100 2.772970 -9.790560 19.735100 9.374050 -4.381670 25.559299 13.050800 -5.698380 19.183901 9.184150 -2.664350 2.000000 -2.000000 0.000000 78.001900 -124.478996 56.735600 47.510201 -0.307196 0.100870 0.045876 0.010173 -129.783005 -2.000000 2.000000 0.000000 48.964699 31.298100 -167.263000 -75.156799 0.249873 0.132161 -0.091790 -0.102966 -97.000000 -11.643447 -1.222701 7.005622 17.057966 2.387920 1.524637 -8.684389 20.383739 5.130913 -25.695026 -3.380407 9.881768 29.284166 -2.445426 -2.310009 -9.967926 0.376123 -0.909566 
3.376179 45.352039 3.023515 10.634300 5.432990 -15.573300 -19.114201 2.878530 -10.237600 19.674500 9.832840 -4.583700 25.588301 12.813600 -5.328010 18.929600 9.252190 -2.553310 2.000000 -2.000000 0.000000 77.174301 -122.929001 58.876202 46.074699 -0.309692 0.098526 0.046189 0.012531 -128.934006 -2.000000 2.000000 0.000000 48.585899 32.479698 -167.264008 -74.404800 0.251604 0.131690 -0.089402 -0.090278 -98.347603 -11.560690 -1.650982 7.704507 16.472149 2.338517 1.499561 -8.580430 20.913076 5.288371 -26.477169 -3.534955 10.600048 29.542101 -2.427200 -2.349859 -9.696934 0.937763 -0.737529 
3.309765 45.337349 3.054407 10.772500 5.996740 -16.575199 -18.896799 2.999170 -10.698000 20.041000 10.009400 -4.766000 25.907000 12.320600 -5.184870 19.198500 9.070170 -2.448920 2.000000 -2.000000 0.000000 76.345497 -120.901001 61.095299 44.678200 -0.312064 0.096185 0.046626 0.015452 -127.878998 -2.000000 2.000000 0.000000 48.081699 34.336102 -167.641006 -73.467300 0.253754 0.131071 -0.086229 -0.095929 -100.203003 -11.323518 -2.022424 8.251557 15.693369 2.258504 1.475147 -8.438965 21.374891 5.461310 -27.104013 -3.621001 11.247312 29.827835 -2.413851 -2.360631 -9.560888 1.388795 -0.598050 
3.243373 45.322792 3.085289 10.882900 6.570210 -17.577000 -18.667801 3.108350 -11.160900 20.407801 10.195300 -4.947800 26.225000 11.821500 -5.039780 19.467400 8.888380 -2.344650 2.000000 -2.000000 0.000000 75.293297 -118.891998 63.510899 43.271900 -0.314394 0.093771 0.047121 0.018391 -126.814003 -2.000000 2.000000 0.000000 47.558300 36.173000 -168.046997 -72.529800 0.255893 0.130417 -0.083206 -0.091737 -102.049004 -11.124784 -2.401144 8.791019 14.974351 2.174114 1.449702 -8.301696 21.846893 5.648139 -27.743553 -3.692010 11.901033 30.154083 -2.391806 -2.387855 -9.443830 1.828392 -0.475896 
3.164646 45.303581 3.140459 11.022700 7.085020 -18.301100 -18.482800 3.190350 -11.670200 20.903999 10.292800 -5.132490 26.136299 11.810200 -4.703870 19.494499 9.047500 -2.169430 2.000000 -2.000000 0.000000 74.134499 -117.379997 65.592400 41.826599 -0.316726 0.091230 0.048512 0.025308 -124.294998 -2.000000 2.000000 0.000000 47.210602 37.833698 -168.300003 -71.631401 0.257933 0.129757 -0.077758 -0.073610 -105.612999 -10.974335 -2.751460 9.244616 14.282631 2.103028 1.416541 -8.169493 22.147074 5.783003 -28.325100 -3.770417 12.462699 30.548168 -2.378629 -2.416221 -9.450580 2.236339 -0.356922 
3.085920 45.284370 3.195617 11.163700 7.599330 -19.021500 -18.287500 3.276810 -12.167600 21.400600 10.399300 -5.315380 26.056601 11.788900 -4.369340 19.521700 9.206580 -1.994070 2.000000 -2.000000 0.000000 72.781898 -115.888000 67.859398 40.371498 -0.319008 0.088614 0.050205 0.032156 -121.775002 -2.000000 2.000000 0.000000 46.843601 39.484798 -168.589005 -70.733002 0.259962 0.129065 -0.072853 -0.074716 -109.167999 -10.795668 -3.098276 9.685151 13.582540 2.024217 1.393298 -8.049124 22.470087 5.933465 -28.875305 -3.860673 13.018939 30.854057 -2.360084 -2.434807 -9.420652 2.642205 -0.239473 
3.004688 45.259621 3.255313 11.216200 8.077280 -19.526400 -18.127001 3.291590 -12.521600 21.738199 10.398200 -5.450760 26.049200 11.228400 -4.205500 19.521900 8.999110 -1.884740 2.000000 -2.000000 0.000000 71.452499 -114.748001 70.419899 39.209400 -0.320782 0.086484 0.053269 0.042170 -118.035004 -2.000000 2.000000 0.000000 46.525002 40.775101 -169.098007 -70.625504 0.260204 0.128981 -0.062928 -0.041860 -118.152000 -10.562043 -3.437139 10.041041 12.913423 1.930486 1.349695 -7.959226 22.641563 6.060353 -29.296661 -3.975249 13.596843 31.219049 -2.346895 -2.472841 -9.523335 2.872702 -0.169866 
2.923456 45.234737 3.314999 11.269600 8.555070 -20.029100 -17.966299 3.300760 -12.862100 22.075701 10.387100 -5.584640 26.034100 10.660700 -4.048770 19.512100 8.782680 -1.779510 2.000000 -2.000000 0.000000 69.930000 -113.626999 73.165703 38.037498 -0.322528 0.084299 0.056969 0.051937 -114.305000 -2.000000 2.000000 0.000000 46.187099 42.065399 -169.621994 -70.508301 0.260468 0.128888 -0.056727 -0.027241 -127.146004 -10.348102 -3.776077 10.387709 12.265027 1.841158 1.345784 -7.823282 22.826262 6.181559 -29.707863 -4.079696 14.154902 31.593306 -2.334655 -2.501682 -9.641089 3.107087 -0.097722 
2.842842 45.206635 3.376212 11.261600 8.938760 -20.580099 -17.929001 3.412410 -13.180600 22.205700 10.562100 -5.703260 26.019400 9.960960 -3.801020 19.453899 8.587170 -1.647080 2.000000 -2.000000 0.000000 68.989899 -112.759003 74.963898 37.002300 -0.324032 0.082341 0.060947 0.060731 -110.857002 -2.000000 2.000000 0.000000 45.790901 43.298199 -170.634003 -70.440002 0.260621 0.128833 -0.054789 0.011176 -140.916000 -10.222260 -4.069223 10.643915 11.977804 1.837187 1.312958 -7.859008 23.190170 6.275091 -30.068590 -4.141597 14.531607 31.987179 -2.314957 -2.517687 -9.702898 3.439559 0.009399 
